<svg data-v-0dd9719b="" version="1.0" xmlns="http://www.w3.org/2000/svg" xmlns:xlink="http://www.w3.org/1999/xlink" width="100%" height="100%" viewBox="0 0 340.000000 250.000000" preserveAspectRatio="xMidYMid meet" color-interpolation-filters="sRGB" style="margin: auto;"> <rect data-v-0dd9719b="" x="0" y="0" width="100%" height="100%" fill="#fff" fill-opacity="1" class="background"></rect> <rect data-v-0dd9719b="" x="0" y="0" width="100%" height="100%" fill="url(#watermark)" fill-opacity="1" class="watermarklayer"></rect> <g data-v-0dd9719b="" fill="#333" class="icon-text-wrapper icon-svg-group iconsvg" transform="translate(48.55133819580078,104.3771915435791)"><g class="iconsvg-imagesvg" transform="translate(0,0)"><g><rect fill="#333" fill-opacity="0" stroke-width="2" x="0" y="0" width="60" height="41.245617653124356" class="image-rect"></rect> <svg x="0" y="0" width="60" height="41.245617653124356" filtersec="colorsb9054357698" class="image-svg-svg primary" style="overflow: visible;"><svg xmlns="http://www.w3.org/2000/svg" viewBox="0 0 145.47000122070312 100"><path d="M63.47 0h82l-22.59 63.32a15.63 15.63 0 0 1-14.71 10.38H48.34a15.63 15.63 0 0 1-14.72-20.87l15.14-42.45A15.61 15.61 0 0 1 63.47 0z" fill="#221dff"></path><path d="M82 100H0l22.57-63.32A15.63 15.63 0 0 1 37.29 26.3h59.83a15.62 15.62 0 0 1 14.71 20.87L96.7 89.62A15.62 15.62 0 0 1 82 100z" fill="#ff31fa"></path><path d="M97.12 26.3h-54l-9.5 26.53A15.63 15.63 0 0 0 48.34 73.7h54l9.45-26.53A15.62 15.62 0 0 0 97.12 26.3z" fill="#8733ff"></path></svg></svg> <!----></g></g> <g transform="translate(67,5.9878082275390625)"><g data-gra="path-name" fill-rule="" class="tp-name iconsvg-namesvg"><g transform="scale(1)"><g><path d="M5.32-13.06L16.94-13.06 16.94-22.14 19.96-22.14 19.96 0 16.94 0 16.94-10.28 5.32-10.28 5.32 0 2.3 0 2.3-22.14 5.32-22.14 5.32-13.06ZM40.77-15.73L40.77-15.73 37.98-15.73Q37.74-19.96 32.42-20.2L32.42-20.2Q27.46-20.08 27.46-16.33L27.46-16.33Q27.46-13.91 30.12-13.55L30.12-13.55 36.41-12.1Q41.37-10.89 41.37-6.05L41.37-6.05Q41.25 0.12 32.66 0.36L32.66 0.36Q27.94 0.36 26.01-1.57L26.01-1.57Q23.59-3.39 23.71-7.14L23.71-7.14 26.61-7.14Q26.73-2.06 32.66-1.94L32.66-1.94Q38.47-2.06 38.59-5.69L38.59-5.69Q39.07-8.71 33.75-9.68L33.75-9.68 29.15-10.65Q24.44-11.98 24.44-15.97L24.44-15.97Q24.8-22.5 32.18-22.74L32.18-22.74Q40.52-22.74 40.77-15.73ZM61.69-9.31L54.92-9.31 54.92-11.85 64.6-11.85 64.6 0 62.66 0 61.94-2.78Q59.4 0.24 54.68 0.36L54.68 0.36Q50.2 0.36 47.78-1.94L47.78-1.94Q44.15-5.32 44.27-11.25L44.27-11.25Q45.12-22.26 54.8-22.74L54.8-22.74Q63.02-22.26 64.23-15.48L64.23-15.48 61.33-15.48Q60.12-20.08 54.68-20.2L54.68-20.2Q47.78-19.72 47.42-11.13L47.42-11.13Q47.42-1.94 54.8-1.94L54.8-1.94Q57.46-1.94 59.4-3.39L59.4-3.39Q61.81-5.32 61.69-9.31L61.69-9.31ZM80.81-13.06L92.42-13.06 92.42-22.14 95.44-22.14 95.44 0 92.42 0 92.42-10.28 80.81-10.28 80.81 0 77.78 0 77.78-22.14 80.81-22.14 80.81-13.06ZM102.22-11.25L102.22-11.25 99.68-11.25Q99.8-16.69 106.33-16.69L106.33-16.69Q112.14-16.45 112.26-12.1L112.26-12.1 112.26-2.78Q112.26-1.81 113.23-1.81L113.23-1.81Q113.35-1.81 113.59-1.81L113.59-1.81Q113.95-1.94 114.19-1.94L114.19-1.94 114.19 0Q113.95 0 113.59 0L113.59 0Q112.98 0.12 112.62 0.12L112.62 0.12Q109.72 0.12 109.84-2.18L109.84-2.18Q107.42 0.24 103.91 0.24L103.91 0.24Q99.07 0 98.83-4.23L98.83-4.23Q98.95-8.59 103.79-9.31L103.79-9.31 108.27-9.8Q109.72-10.04 109.72-11.73L109.72-11.73Q109.72-14.4 105.85-14.4L105.85-14.4Q102.46-14.4 102.22-11.25ZM109.6-5.56L109.6-5.56 109.6-8.23Q108.63-7.62 105.12-7.14L105.12-7.14Q101.73-6.9 101.73-4.6L101.73-4.6Q101.73-1.81 104.52-1.81L104.52-1.81Q109.23-2.18 109.6-5.56ZM116.98-16.21L119.76-16.21 119.76 0 116.98 0 116.98-16.21ZM119.76-22.14L119.76-19.11 116.98-19.11 116.98-22.14 119.76-22.14ZM136.81-11.01L136.81-11.01 136.81 0 134.15 0 134.15-9.92Q134.4-14.4 130.65-14.15L130.65-14.15Q126.53-13.91 126.41-8.83L126.41-8.83 126.41 0 123.63 0 123.63-16.21 126.29-16.21 126.29-13.91Q128.23-16.69 131.25-16.69L131.25-16.69Q136.69-16.57 136.81-11.01ZM140.93-16.21L143.71-16.21 143.71 0 140.93 0 140.93-16.21ZM143.71-22.14L143.71-19.11 140.93-19.11 140.93-22.14 143.71-22.14ZM160.77-11.01L160.77-11.01 160.77 0 158.1 0 158.1-9.92Q158.35-14.4 154.6-14.15L154.6-14.15Q150.48-13.91 150.36-8.83L150.36-8.83 150.36 0 147.58 0 147.58-16.21 150.24-16.21 150.24-13.91Q152.18-16.69 155.2-16.69L155.2-16.69Q160.65-16.57 160.77-11.01ZM166.94-8.1L166.94-8.1Q167.06-1.94 171.29-1.81L171.29-1.81Q175.52-2.18 175.65-7.26L175.65-7.26Q175.77-14.15 171.29-14.15L171.29-14.15Q166.81-14.15 166.94-8.1ZM175.65-16.21L178.19-16.21 178.19-1.33Q178.43 6.53 170.81 6.53L170.81 6.53Q165.12 6.53 164.52 1.69L164.52 1.69 167.3 1.69Q167.78 4.35 170.93 4.35L170.93 4.35Q175.77 4.35 175.52-1.09L175.52-1.09 175.52-1.81 175.52-1.69Q174.07 0.24 171.17 0.24L171.17 0.24Q164.4 0 164.03-8.59L164.03-8.59Q164.4-16.33 170.81-16.69L170.81-16.69Q173.83-16.69 175.65-13.91L175.65-13.91 175.65-16.21Z" transform="translate(-2.299999952316284, 22.739999771118164)"></path></g> <!----> <!----> <!----> <!----> <!----> <!----> <!----></g></g> <!----></g></g><defs v-gra="od"></defs></svg>